<?xml version="1.0" encoding="UTF-8"?>
<!DOCTYPE svg PUBLIC "-//W3C//DTD SVG 1.1//EN" "http://www.w3.org/Graphics/SVG/1.1/DTD/svg11.dtd">
<!-- Creator: CorelDRAW X7 -->
<svg xmlns="http://www.w3.org/2000/svg" xml:space="preserve" width="514px" height="514px" version="1.1" shape-rendering="geometricPrecision" text-rendering="geometricPrecision" image-rendering="optimizeQuality" fill-rule="evenodd" clip-rule="evenodd"
viewBox="0 0 514 514"
 xmlns:xlink="http://www.w3.org/1999/xlink">
 <g id="Layer_x0020_1">
  <metadata id="CorelCorpID_0Corel-Layer"/>
  <rect fill="white" stroke="white" stroke-width="2.08246" x="1" y="1" width="512" height="512"/>
  <g id="_2526010658240">
   <path fill="#E9C74B" stroke="#1A1A1A" stroke-width="6.24621" d="M134 141l0 234c63,0 125,0 187,0 42,-5 58,-39 59,-66 0,-18 -9,-49 -35,-63 23,-16 26,-40 24,-57 -3,-19 -20,-48 -57,-50 0,0 -178,0 -178,2zm155 192l-61 0 0 -177 61 0 0 177z"/>
   <path fill="#DE8F71" stroke="#1A1A1A" stroke-width="6.24621" d="M184 235l69 0c14,0 25,-11 25,-25l0 -1c0,-14 -11,-26 -25,-26l-69 0 0 52zm1 140l0 -105c25,0 51,0 76,0 31,11 31,44 7,63 37,3 64,-7 67,-32 1,-17 -7,-41 -38,-53 39,-26 22,-106 -24,-109l-139 2 0 234 51 0z"/>
  </g>
 </g>
</svg>
