<?xml version="1.0" encoding="UTF-8"?>
<!DOCTYPE svg PUBLIC "-//W3C//DTD SVG 1.1//EN" "http://www.w3.org/Graphics/SVG/1.1/DTD/svg11.dtd">
<!-- Creator: CorelDRAW X7 -->
<svg xmlns="http://www.w3.org/2000/svg" xml:space="preserve" width="514px" height="514px" version="1.1" shape-rendering="geometricPrecision" text-rendering="geometricPrecision" image-rendering="optimizeQuality" fill-rule="evenodd" clip-rule="evenodd"
viewBox="0 0 514 514"
 xmlns:xlink="http://www.w3.org/1999/xlink">
 <g id="Layer_x0020_1">
  <metadata id="CorelCorpID_0Corel-Layer"/>
  <rect fill="white" stroke="white" stroke-width="2.08246" x="1" y="1" width="512" height="512"/>
  <g id="_2526007378496">
   <path fill="white" stroke="#1A1A1A" stroke-width="6.24621" d="M286 137c56,0 90,27 103,80l-48 0 0 0c-11,-25 -31,-41 -54,-41 -34,0 -62,36 -62,81 0,45 28,81 62,81 28,0 52,-24 60,-57l45 0c-8,64 -48,96 -106,96 -58,0 -114,-54 -114,-120 0,-66 58,-120 114,-120z"/>
   <path fill="#B66880" stroke="#1A1A1A" stroke-width="6.24621" d="M233 137c53,0 95,27 108,80l-53 0 0 0c-10,-25 -26,-41 -54,-41 -28,0 -62,36 -62,81 0,51 40,105 90,117 -9,2 -19,3 -29,3 -58,0 -111,-46 -111,-120 0,-74 58,-120 111,-120zm28 194c15,-10 27,-28 33,-50l53 0c-8,33 -32,57 -60,57 -9,0 -18,-2 -26,-7z"/>
  </g>
 </g>
</svg>
