<?xml version="1.0" encoding="UTF-8"?>
<!DOCTYPE svg PUBLIC "-//W3C//DTD SVG 1.1//EN" "http://www.w3.org/Graphics/SVG/1.1/DTD/svg11.dtd">
<!-- Creator: CorelDRAW X7 -->
<svg xmlns="http://www.w3.org/2000/svg" xml:space="preserve" width="514px" height="514px" version="1.1" shape-rendering="geometricPrecision" text-rendering="geometricPrecision" image-rendering="optimizeQuality" fill-rule="evenodd" clip-rule="evenodd"
viewBox="0 0 514 514"
 xmlns:xlink="http://www.w3.org/1999/xlink">
 <g id="Layer_x0020_1">
  <metadata id="CorelCorpID_0Corel-Layer"/>
  <rect fill="white" stroke="white" stroke-width="2.08246" x="1" y="1" width="512" height="512"/>
  <g id="_2525964108592">
   <path fill="#E4B259" stroke="#1A1A1A" stroke-width="6.24621" d="M180 375l-51 0c0,0 -5,-236 0,-236 6,0 122,0 122,0 57,4 84,72 86,106 2,31 -3,72 -43,85l-48 0c42,-22 45,-54 44,-75 -2,-32 -8,-83 -109,-72l-1 192z"/>
   <path fill="#6FA4B2" stroke="#1A1A1A" stroke-width="6.24621" d="M180 375l108 0c55,0 99,-44 99,-99l0 -38c0,-55 -44,-99 -99,-99l-37 0c57,4 84,72 86,106 2,31 -3,72 -42,85l0 0 -1 0 -48 0 -16 0 0 -147c-13,-2 -29,-2 -49,0l-1 192z"/>
  </g>
 </g>
</svg>
