<?xml version="1.0" encoding="UTF-8"?>
<!DOCTYPE svg PUBLIC "-//W3C//DTD SVG 1.1//EN" "http://www.w3.org/Graphics/SVG/1.1/DTD/svg11.dtd">
<!-- Creator: CorelDRAW X7 -->
<svg xmlns="http://www.w3.org/2000/svg" xml:space="preserve" width="514px" height="514px" version="1.1" shape-rendering="geometricPrecision" text-rendering="geometricPrecision" image-rendering="optimizeQuality" fill-rule="evenodd" clip-rule="evenodd"
viewBox="0 0 514 514"
 xmlns:xlink="http://www.w3.org/1999/xlink">
 <g id="Layer_x0020_1">
  <metadata id="CorelCorpID_0Corel-Layer"/>
  <rect fill="white" stroke="white" stroke-width="2.08246" x="1" y="1" width="512" height="512"/>
  <g id="_2526002108528">
   <path fill="#DD5699" stroke="#1A1A1A" stroke-width="6.24621" d="M371 139l0 43 -133 0 0 51 121 0 0 43 -121 0 0 54 138 0 0 44 -188 0 -2 -234c0,0 185,0 185,-1z"/>
   <path fill="#63AF65" stroke="#1A1A1A" stroke-width="6.24621" d="M139 140l183 0 0 42 -135 0 0 51 121 0 0 43 -120 0 0 99 -50 0c0,0 0,-235 1,-235z"/>
  </g>
 </g>
</svg>
