<?xml version="1.0" encoding="UTF-8"?>
<!DOCTYPE svg PUBLIC "-//W3C//DTD SVG 1.1//EN" "http://www.w3.org/Graphics/SVG/1.1/DTD/svg11.dtd">
<!-- Creator: CorelDRAW X7 -->
<svg xmlns="http://www.w3.org/2000/svg" xml:space="preserve" width="514px" height="514px" version="1.1" shape-rendering="geometricPrecision" text-rendering="geometricPrecision" image-rendering="optimizeQuality" fill-rule="evenodd" clip-rule="evenodd"
viewBox="0 0 514 514"
 xmlns:xlink="http://www.w3.org/1999/xlink">
 <g id="Layer_x0020_1">
  <metadata id="CorelCorpID_0Corel-Layer"/>
  <rect fill="white" stroke="white" stroke-width="2.08246" x="1" y="1" width="512" height="512"/>
  <g id="_2526003873424">
   <path fill="#DAD3C1" stroke="#1A1A1A" stroke-width="6.24621" d="M234 131c75,0 98,37 109,88l-49 0 0 0c-11,-22 -33,-37 -58,-37l0 0c-36,0 -64,29 -64,65l0 29c0,35 44,64 79,64l0 0c32,0 59,-23 64,-54l-50 0 0 -37 29 0 6 0 54 0 0 22 0 112 -57 0 0 -29c-20,18 -35,29 -63,29l0 0c-62,0 -112,-51 -112,-112l0 -29c0,-61 50,-111 112,-111z"/>
   <path fill="#7DA8CA" stroke="#1A1A1A" stroke-width="6.24621" d="M389 219l-49 0 0 0 0 0 0 0c-9,-42 -47,-81 -85,-86 67,-5 122,25 134,86zm-132 -32c-23,10 -39,33 -39,60l0 29c0,35 29,64 64,64l0 0c32,0 59,-23 63,-54l-53 0 0 -37 48 0 6 0 46 0 0 22 0 112 -38 0 0 -29c-20,18 -45,29 -74,29l0 0c-61,0 -112,-51 -112,-112l0 -29c3,-33 31,-60 64,-60l0 0c9,0 18,2 25,5z"/>
  </g>
 </g>
</svg>
