<?xml version="1.0" encoding="UTF-8"?>
<!DOCTYPE svg PUBLIC "-//W3C//DTD SVG 1.1//EN" "http://www.w3.org/Graphics/SVG/1.1/DTD/svg11.dtd">
<!-- Creator: CorelDRAW X7 -->
<svg xmlns="http://www.w3.org/2000/svg" xml:space="preserve" width="514px" height="514px" version="1.1" shape-rendering="geometricPrecision" text-rendering="geometricPrecision" image-rendering="optimizeQuality" fill-rule="evenodd" clip-rule="evenodd"
viewBox="0 0 514 514"
 xmlns:xlink="http://www.w3.org/1999/xlink">
 <g id="Layer_x0020_1">
  <metadata id="CorelCorpID_0Corel-Layer"/>
  <rect fill="white" stroke="white" stroke-width="2.08246" x="1" y="1" width="512" height="512"/>
  <g id="_2526007353792">
   <polygon fill="#E0D79E" stroke="#1A1A1A" stroke-width="6.24621" points="233,137 233,227 333,227 333,137 383,137 383,377 332,377 332,276 231,276 231,377 181,377 181,137 "/>
   <polygon fill="#CA5C67" stroke="#1A1A1A" stroke-width="6.24621" points="183,137 183,227 283,227 333,227 333,137 283,137 283,227 283,276 333,276 333,377 282,377 282,276 181,276 181,377 131,377 131,137 "/>
  </g>
 </g>
</svg>
