<?xml version="1.0" encoding="UTF-8"?>
<!DOCTYPE svg PUBLIC "-//W3C//DTD SVG 1.1//EN" "http://www.w3.org/Graphics/SVG/1.1/DTD/svg11.dtd">
<!-- Creator: CorelDRAW X7 -->
<svg xmlns="http://www.w3.org/2000/svg" xml:space="preserve" width="514px" height="514px" version="1.1" shape-rendering="geometricPrecision" text-rendering="geometricPrecision" image-rendering="optimizeQuality" fill-rule="evenodd" clip-rule="evenodd"
viewBox="0 0 514 514"
 xmlns:xlink="http://www.w3.org/1999/xlink">
 <g id="Layer_x0020_1">
  <metadata id="CorelCorpID_0Corel-Layer"/>
  <rect fill="white" stroke="white" stroke-width="2.08246" x="1" y="1" width="512" height="512"/>
  <g id="_2526020413760">
   <path fill="#9ACF75" stroke="#1A1A1A" stroke-width="6.24621" d="M209 131l0 56 50 0 0 95 0 0 0 35c0,13 -11,25 -25,25 -14,0 -25,-12 -25,-25l0 -35 -54 0 0 23c0,42 35,77 77,77 99,8 92,-39 77,-77l0 -23 0 -151 -100 0z"/>
   <path fill="#F1AC82" stroke="#1A1A1A" stroke-width="6.24621" d="M309 187l0 95 0 0 0 35c0,13 -11,25 -25,25 -14,0 -25,-12 -25,-25l0 -35 -54 0 0 23c0,42 35,77 77,77 42,0 77,-35 77,-77l0 -23 0 -151 -50 0 0 56z"/>
  </g>
 </g>
</svg>
