<?xml version="1.0" encoding="UTF-8"?>
<!DOCTYPE svg PUBLIC "-//W3C//DTD SVG 1.1//EN" "http://www.w3.org/Graphics/SVG/1.1/DTD/svg11.dtd">
<!-- Creator: CorelDRAW X7 -->
<svg xmlns="http://www.w3.org/2000/svg" xml:space="preserve" width="514px" height="514px" version="1.1" shape-rendering="geometricPrecision" text-rendering="geometricPrecision" image-rendering="optimizeQuality" fill-rule="evenodd" clip-rule="evenodd"
viewBox="0 0 514 514"
 xmlns:xlink="http://www.w3.org/1999/xlink">
 <g id="Layer_x0020_1">
  <metadata id="CorelCorpID_0Corel-Layer"/>
  <rect fill="white" stroke="white" stroke-width="2.08246" x="1" y="1" width="512" height="512"/>
  <g id="_2526010595712">
   <polygon fill="#DCD86D" stroke="#1A1A1A" stroke-width="6.24621" points="175,137 175,377 228,377 228,290 254,264 337,377 391,377 285,233 380,137 322,137 227,237 227,137 "/>
   <path fill="#2A9DB2" stroke="#1A1A1A" stroke-width="6.24621" d="M123 137l0 240 52 0 0 -87 27 -26 45 -46 81 -81 -58 0 -96 100 0 -100 -51 0zm105 153l57 87 54 0 -84 -114 -27 27z"/>
  </g>
 </g>
</svg>
