<?xml version="1.0" encoding="UTF-8"?>
<!DOCTYPE svg PUBLIC "-//W3C//DTD SVG 1.1//EN" "http://www.w3.org/Graphics/SVG/1.1/DTD/svg11.dtd">
<!-- Creator: CorelDRAW X7 -->
<svg xmlns="http://www.w3.org/2000/svg" xml:space="preserve" width="514px" height="514px" version="1.1" shape-rendering="geometricPrecision" text-rendering="geometricPrecision" image-rendering="optimizeQuality" fill-rule="evenodd" clip-rule="evenodd"
viewBox="0 0 514 514"
 xmlns:xlink="http://www.w3.org/1999/xlink">
 <g id="Layer_x0020_1">
  <metadata id="CorelCorpID_0Corel-Layer"/>
  <rect fill="white" stroke="white" stroke-width="2.08246" x="1" y="1" width="512" height="512"/>
  <g id="_2527482381536">
   <path fill="#4263A6" stroke="#1A1A1A" stroke-width="6.24621" d="M201 376l0 -168 60 168 51 0 50 -149 0 149 47 0c0,0 4,-238 0,-238 -4,0 -62,0 -62,0l-63 156 -58 -156 -72 0 0 238 47 0z"/>
   <path fill="#9ACF75" stroke="#1A1A1A" stroke-width="6.24621" d="M154 376l0 -168 58 168 45 0 49 -149 0 149 56 0c0,0 4,-238 0,-238 -4,0 -71,0 -71,0l-61 144 -53 -144 -74 0 0 238 51 0z"/>
   <polygon fill="#4263A6" stroke="#1A1A1A" stroke-width="6.24621" points="203,208 257,376 305,376 306,227 284,294 226,138 177,138 "/>
  </g>
 </g>
</svg>
