<?xml version="1.0" encoding="UTF-8"?>
<!DOCTYPE svg PUBLIC "-//W3C//DTD SVG 1.1//EN" "http://www.w3.org/Graphics/SVG/1.1/DTD/svg11.dtd">
<!-- Creator: CorelDRAW X7 -->
<svg xmlns="http://www.w3.org/2000/svg" xml:space="preserve" width="514px" height="514px" version="1.1" shape-rendering="geometricPrecision" text-rendering="geometricPrecision" image-rendering="optimizeQuality" fill-rule="evenodd" clip-rule="evenodd"
viewBox="0 0 514 514"
 xmlns:xlink="http://www.w3.org/1999/xlink">
 <g id="Layer_x0020_1">
  <metadata id="CorelCorpID_0Corel-Layer"/>
  <rect fill="white" stroke="white" stroke-width="2.08246" x="1" y="1" width="512" height="512"/>
  <g id="_2526020421728">
   <path fill="#DCD86D" stroke="#1A1A1A" stroke-width="6.24621" d="M234 129c65,0 117,57 117,128 0,71 -52,128 -117,128 -65,0 -117,-57 -117,-128 0,-71 52,-128 117,-128zm0 42c40,0 72,38 72,86 0,48 -32,86 -72,86 -40,0 -72,-38 -72,-86 0,-48 32,-86 72,-86z"/>
   <path fill="#CA5C67" stroke="#1A1A1A" stroke-width="6.24621" d="M278 129c66,0 119,57 119,128 0,71 -53,128 -119,128 -66,0 -119,-57 -119,-128 0,-1 0,-1 0,-2 1,-47 36,-84 75,-84 8,0 15,1 22,4 -30,11 -51,44 -51,82 0,48 33,86 73,86 40,0 73,-38 73,-86 0,-1 0,-2 0,-2 -1,-62 -42,-113 -95,-124 7,-1 14,-2 22,-2z"/>
  </g>
 </g>
</svg>
