<?xml version="1.0" encoding="UTF-8"?>
<!DOCTYPE svg PUBLIC "-//W3C//DTD SVG 1.1//EN" "http://www.w3.org/Graphics/SVG/1.1/DTD/svg11.dtd">
<!-- Creator: CorelDRAW X7 -->
<svg xmlns="http://www.w3.org/2000/svg" xml:space="preserve" width="514px" height="514px" version="1.1" shape-rendering="geometricPrecision" text-rendering="geometricPrecision" image-rendering="optimizeQuality" fill-rule="evenodd" clip-rule="evenodd"
viewBox="0 0 514 514"
 xmlns:xlink="http://www.w3.org/1999/xlink">
 <g id="Layer_x0020_1">
  <metadata id="CorelCorpID_0Corel-Layer"/>
  <rect fill="white" stroke="white" stroke-width="2.08246" x="1" y="1" width="512" height="512"/>
  <g id="_2526012892208">
   <path fill="#6188CB" stroke="#1A1A1A" stroke-width="6.24621" d="M238 376l-51 0 0 -86 0 -152 51 0 73 0c37,0 66,30 66,68l0 15c0,38 -28,69 -66,69l-73 0 0 86zm60 -125l-60 0 0 -74 60 0c18,0 31,15 31,33l0 8c0,18 -13,33 -31,33z"/>
   <path fill="#DD5699" stroke="#1A1A1A" stroke-width="6.24621" d="M187 376l-50 0 0 -86 0 -152 50 0 73 0c38,0 69,30 69,68l0 15c-2,16 -14,30 -31,30l-51 0c18,0 33,-15 33,-33l0 -8c0,-18 -15,-33 -33,-33l-60 0 0 74 0 39 0 86z"/>
  </g>
 </g>
</svg>
