<?xml version="1.0" encoding="UTF-8"?>
<!DOCTYPE svg PUBLIC "-//W3C//DTD SVG 1.1//EN" "http://www.w3.org/Graphics/SVG/1.1/DTD/svg11.dtd">
<!-- Creator: CorelDRAW X7 -->
<svg xmlns="http://www.w3.org/2000/svg" xml:space="preserve" width="514px" height="514px" version="1.1" shape-rendering="geometricPrecision" text-rendering="geometricPrecision" image-rendering="optimizeQuality" fill-rule="evenodd" clip-rule="evenodd"
viewBox="0 0 514 514"
 xmlns:xlink="http://www.w3.org/1999/xlink">
 <g id="Layer_x0020_1">
  <metadata id="CorelCorpID_0Corel-Layer"/>
  <rect fill="white" stroke="white" stroke-width="2.08246" x="1" y="1" width="512" height="512"/>
  <g id="_2526020400064">
   <path fill="#109D8C" stroke="#1A1A1A" stroke-width="6.24621" d="M231 123c66,0 119,56 119,126 0,35 -13,66 -35,89l30 27 -22 26 -36 -31c-17,9 -36,15 -56,15 -66,0 -120,-57 -120,-126 0,-70 54,-126 120,-126zm24 161l31 28c11,-15 18,-23 18,-57 0,-35 -24,-90 -73,-90 -37,0 -67,37 -67,84 0,46 30,84 67,84 7,0 14,-2 21,-4l-22 -20 25 -25z"/>
   <path fill="#D5DCEE" stroke="#1A1A1A" stroke-width="6.24621" d="M283 123c3,0 6,0 8,0 63,5 112,59 112,126 0,35 -14,66 -35,89l29 27 -22 26 -35 -31c-17,9 -36,15 -57,15 -66,0 -119,-57 -119,-126 0,-7 1,-14 2,-20 7,-37 33,-64 65,-64 9,0 18,2 26,7 -24,12 -41,42 -41,77 0,46 30,84 67,84 8,0 15,-2 22,-4l-22 -20 25 -25 24 22c12,-15 18,-35 18,-57 0,-7 0,-14 -2,-20 -7,-51 -42,-95 -105,-105 9,-2 31,-1 40,-1z"/>
  </g>
 </g>
</svg>
