<?xml version="1.0" encoding="UTF-8"?>
<!DOCTYPE svg PUBLIC "-//W3C//DTD SVG 1.1//EN" "http://www.w3.org/Graphics/SVG/1.1/DTD/svg11.dtd">
<!-- Creator: CorelDRAW X7 -->
<svg xmlns="http://www.w3.org/2000/svg" xml:space="preserve" width="514px" height="514px" version="1.1" shape-rendering="geometricPrecision" text-rendering="geometricPrecision" image-rendering="optimizeQuality" fill-rule="evenodd" clip-rule="evenodd"
viewBox="0 0 514 514"
 xmlns:xlink="http://www.w3.org/1999/xlink">
 <g id="Layer_x0020_1">
  <metadata id="CorelCorpID_0Corel-Layer"/>
  <rect fill="white" stroke="white" stroke-width="2.08246" x="1" y="1" width="512" height="512"/>
  <g id="_2526010600928">
   <path fill="#7D80B7" stroke="#1A1A1A" stroke-width="6.24621" d="M130 376l0 -238 92 0c20,0 37,0 57,2 30,7 53,35 53,67l0 0c0,18 -7,34 -18,46 -6,7 -12,11 -18,15l0 0c36,9 34,56 36,108 -18,0 -36,0 -53,0 -1,-40 1,-82 -33,-94l0 0c-21,1 -43,-2 -64,-2l0 96 -52 0zm52 -197l63 0c19,0 34,15 34,33l0 0c0,19 -15,33 -34,33l-63 0 0 -66z"/>
   <path fill="#EFEEAE" stroke="#1A1A1A" stroke-width="6.24621" d="M182 376l0 -197 52 0 0 66 64 0c18,0 31,-17 33,-33 4,-30 -16,-63 -52,-72 -12,-2 -39,-2 -62,-2l57 0c20,0 37,0 57,2 30,7 53,35 53,67l0 0c0,18 -7,34 -18,46 -6,7 -12,11 -18,15l0 0c36,9 34,56 36,108 -18,0 -36,0 -53,0 -1,-40 1,-82 -33,-94l-64 -2 0 96 -52 0z"/>
  </g>
 </g>
</svg>
