<?xml version="1.0" encoding="UTF-8"?>
<!DOCTYPE svg PUBLIC "-//W3C//DTD SVG 1.1//EN" "http://www.w3.org/Graphics/SVG/1.1/DTD/svg11.dtd">
<!-- Creator: CorelDRAW X7 -->
<svg xmlns="http://www.w3.org/2000/svg" xml:space="preserve" width="514px" height="514px" version="1.1" shape-rendering="geometricPrecision" text-rendering="geometricPrecision" image-rendering="optimizeQuality" fill-rule="evenodd" clip-rule="evenodd"
viewBox="0 0 514 514"
 xmlns:xlink="http://www.w3.org/1999/xlink">
 <g id="Layer_x0020_1">
  <metadata id="CorelCorpID_0Corel-Layer"/>
  <rect fill="white" stroke="white" stroke-width="2.08246" x="1" y="1" width="512" height="512"/>
  <g id="_2526020413984">
   <path fill="#E89084" stroke="#1A1A1A" stroke-width="6.24621" d="M132 295c5,51 31,86 101,89 53,0 118,-14 102,-89 -13,-57 -138,-49 -144,-84 -8,-61 89,-59 89,0 14,0 38,0 52,0 0,-53 -52,-81 -99,-81 -57,0 -92,22 -92,81 2,84 131,54 139,84 8,30 -8,48 -47,48 -39,0 -50,-17 -50,-48 -17,0 -34,0 -51,0z"/>
   <path fill="#BEDCE4" stroke="#1A1A1A" stroke-width="6.24621" d="M249 384c60,2 138,-2 132,-89 -4,-65 -133,-49 -139,-84 -3,-18 5,-31 16,-38 -28,-16 -73,-4 -67,38l-2 0c9,84 134,59 143,89 1,5 2,10 2,15 0,40 -45,65 -85,69zm9 -45c-18,-6 -24,-21 -24,-44l-49 0c0,31 9,48 48,48 10,0 18,-2 25,-4zm74 -128l44 0c0,-53 -44,-81 -92,-81 -10,0 -20,1 -29,2 40,8 77,35 77,79z"/>
  </g>
 </g>
</svg>
