<?xml version="1.0" encoding="UTF-8"?>
<!DOCTYPE svg PUBLIC "-//W3C//DTD SVG 1.1//EN" "http://www.w3.org/Graphics/SVG/1.1/DTD/svg11.dtd">
<!-- Creator: CorelDRAW X7 -->
<svg xmlns="http://www.w3.org/2000/svg" xml:space="preserve" width="514px" height="514px" version="1.1" shape-rendering="geometricPrecision" text-rendering="geometricPrecision" image-rendering="optimizeQuality" fill-rule="evenodd" clip-rule="evenodd"
viewBox="0 0 514 514"
 xmlns:xlink="http://www.w3.org/1999/xlink">
 <g id="Layer_x0020_1">
  <metadata id="CorelCorpID_0Corel-Layer"/>
  <rect fill="white" stroke="white" stroke-width="2.08246" x="1" y="1" width="512" height="512"/>
  <g id="_2526010591584">
   <path fill="#E4B259" stroke="#1A1A1A" stroke-width="6.24621" d="M182 134l52 0 0 152c0,29 9,44 26,43l0 0c17,0 26,-14 26,-43l0 -152 46 0 0 161c0,47 -22,85 -50,85l-50 0c-28,0 -50,-38 -50,-85l0 -161z"/>
   <path fill="#7DA8CA" stroke="#1A1A1A" stroke-width="6.24621" d="M130 134l52 0 0 152c0,29 23,52 52,52l46 0c29,0 52,-23 52,-52l0 -152 52 0 0 161c0,47 -38,85 -85,85l-84 0c-47,0 -85,-38 -85,-85l0 -161z"/>
  </g>
 </g>
</svg>
