<?xml version="1.0" encoding="UTF-8"?>
<!DOCTYPE svg PUBLIC "-//W3C//DTD SVG 1.1//EN" "http://www.w3.org/Graphics/SVG/1.1/DTD/svg11.dtd">
<!-- Creator: CorelDRAW X7 -->
<svg xmlns="http://www.w3.org/2000/svg" xml:space="preserve" width="514px" height="514px" version="1.1" shape-rendering="geometricPrecision" text-rendering="geometricPrecision" image-rendering="optimizeQuality" fill-rule="evenodd" clip-rule="evenodd"
viewBox="0 0 514 514"
 xmlns:xlink="http://www.w3.org/1999/xlink">
 <g id="Layer_x0020_1">
  <metadata id="CorelCorpID_0Corel-Layer"/>
  <rect fill="white" stroke="white" stroke-width="2.08246" x="1" y="1" width="512" height="512"/>
  <g id="_2526025437776">
   <polygon fill="#E97E30" stroke="#1A1A1A" stroke-width="6.24621" points="77,137 139,377 189,377 235,206 280,377 327,377 388,137 342,137 301,294 253,137 207,137 169,293 129,137 "/>
   <path fill="#52BAA3" stroke="#1A1A1A" stroke-width="6.24621" d="M129 137l40 156 0 0 25 -100 -13 -56 -52 0zm61 238l1 2 50 0 36 -162 24 79 22 -86 -15 -71 -55 0 -63 238zm137 2l45 0 65 -240 -49 0 -61 240z"/>
  </g>
 </g>
</svg>
