<?xml version="1.0" encoding="UTF-8"?>
<!DOCTYPE svg PUBLIC "-//W3C//DTD SVG 1.1//EN" "http://www.w3.org/Graphics/SVG/1.1/DTD/svg11.dtd">
<!-- Creator: CorelDRAW X7 -->
<svg xmlns="http://www.w3.org/2000/svg" xml:space="preserve" width="514px" height="514px" version="1.1" shape-rendering="geometricPrecision" text-rendering="geometricPrecision" image-rendering="optimizeQuality" fill-rule="evenodd" clip-rule="evenodd"
viewBox="0 0 514 514"
 xmlns:xlink="http://www.w3.org/1999/xlink">
 <g id="Layer_x0020_1">
  <metadata id="CorelCorpID_0Corel-Layer"/>
  <rect fill="white" stroke="white" stroke-width="2.08246" x="1" y="1" width="512" height="512"/>
  <g id="_2526007356288">
   <path fill="#FF99CC" stroke="#1A1A1A" stroke-width="6.24621" d="M284 136l59 0 -176 243 -59 0 90 -125 -86 -118 59 0 56 78 57 -78zm3 159l60 84 -59 0 -31 -43 30 -41z"/>
   <path fill="#06A58F" stroke="#1A1A1A" stroke-width="6.24621" d="M343 136l59 0 -86 118 90 125 -59 0 0 0 -60 -84 -30 41 -31 43 -59 0 176 -243zm-86 37l-30 41 -57 -79 60 1 27 37z"/>
  </g>
 </g>
</svg>
