<?xml version="1.0" encoding="UTF-8"?>
<!DOCTYPE svg PUBLIC "-//W3C//DTD SVG 1.1//EN" "http://www.w3.org/Graphics/SVG/1.1/DTD/svg11.dtd">
<!-- Creator: CorelDRAW X7 -->
<svg xmlns="http://www.w3.org/2000/svg" xml:space="preserve" width="1.96026in" height="1.4043in" version="1.1" style="shape-rendering:geometricPrecision; text-rendering:geometricPrecision; image-rendering:optimizeQuality; fill-rule:evenodd; clip-rule:evenodd"
viewBox="0 0 1947 1395"
 xmlns:xlink="http://www.w3.org/1999/xlink">
 <defs>
  <style type="text/css">
   <![CDATA[
    .str0 {stroke:#31353E;stroke-width:82.77}
    .str1 {stroke:#31353E;stroke-width:82.77;stroke-linecap:round;stroke-linejoin:round}
    .fil2 {fill:none}
    .fil1 {fill:#31353E}
    .fil0 {fill:white}
   ]]>
  </style>
 </defs>
 <g id="Layer_x0020_1">
  <metadata id="CorelCorpID_0Corel-Layer"/>
  <path class="fil0 str0" d="M1604 1039c-102,202 -1318,211 -1398,-24 -36,-107 140,-767 351,-767 301,0 515,55 776,85 179,20 331,586 271,706z"/>
  <path class="fil0 str0" d="M1681 396c-301,45 -461,149 -765,149 -207,-28 -519,-133 -735,-196 -527,-153 598,-232 737,-243 20,2 1261,215 763,290z"/>
  <path class="fil1 str0" d="M918 42c48,-4 58,57 62,90 5,43 -111,43 -116,0 -4,-33 7,-87 54,-90z"/>
  <path class="fil0 str0" d="M1738 565l0 0c97,0 65,81 81,176l86 498c25,147 -362,158 -343,0l60 -498c12,-96 19,-176 116,-176z"/>
  <path class="fil2 str1" d="M922 103c283,104 465,129 754,286 66,131 36,406 54,609"/>
  <path class="fil2 str1" d="M856 536c-32,130 -51,236 -42,364"/>
 </g>
</svg>
