<?xml version="1.0" encoding="UTF-8"?>
<!DOCTYPE svg PUBLIC "-//W3C//DTD SVG 1.1//EN" "http://www.w3.org/Graphics/SVG/1.1/DTD/svg11.dtd">
<!-- Creator: CorelDRAW X7 -->
<svg xmlns="http://www.w3.org/2000/svg" xml:space="preserve" width="459px" height="418px" version="1.1" shape-rendering="geometricPrecision" text-rendering="geometricPrecision" image-rendering="optimizeQuality" fill-rule="evenodd" clip-rule="evenodd"
viewBox="0 0 200 182"
 xmlns:xlink="http://www.w3.org/1999/xlink">
 <g id="Layer_x0020_1">
  <metadata id="CorelCorpID_0Corel-Layer"/>
  <path fill="#31353E" fill-rule="nonzero" d="M0 74c0,-7 1,-13 4,-19 2,-6 5,-11 9,-15 4,-4 9,-7 15,-10 5,-2 11,-3 17,-4 6,0 11,1 16,2 5,1 9,3 14,6 4,3 7,7 10,11 3,5 5,11 6,18 1,4 1,8 -1,10 -1,3 -3,5 -5,6 -2,1 -5,2 -8,2 -4,0 -7,0 -11,-2 -1,5 -2,8 -5,11 -3,5 -8,7 -14,8 -1,0 -1,0 -2,0 0,0 0,0 -1,0 -1,0 -3,0 -4,0 -2,0 -3,-1 -5,-1 -1,-1 -3,-2 -4,-3 -1,-1 -3,-2 -3,-4 -2,-2 -2,-4 -2,-7l0 0c0,-3 0,-5 1,-7 1,-2 3,-3 5,-5 1,-1 4,-2 6,-2 2,-1 5,-1 7,-1 2,0 3,0 5,0 2,1 3,1 5,1 0,-1 -1,-3 -1,-5 -1,-2 -2,-4 -4,-5 -1,0 -2,0 -2,0 -1,-1 -2,-1 -3,-1 -1,0 -1,0 -1,0 -1,0 -2,0 -3,1 -1,0 -2,0 -3,1 -1,0 -2,0 -3,0 -1,1 -2,1 -3,1 0,0 -1,0 -2,-1 -1,0 -2,-1 -2,-2l-1 0 1 -1c2,-2 4,-4 7,-5 3,-1 6,-2 9,-2 0,0 1,0 2,0 3,0 6,0 8,1 3,1 5,3 7,5 2,2 3,4 4,7 1,3 1,6 2,9 1,0 2,1 3,1 2,0 3,-1 3,-1 1,-1 2,-2 2,-3 0,-2 1,-3 1,-6 0,-4 -1,-9 -3,-12 -2,-4 -4,-6 -7,-9 -3,-2 -7,-4 -10,-4 -4,-1 -7,-2 -10,-1 -4,0 -8,1 -12,3 -3,2 -6,4 -9,8 -3,3 -5,7 -7,11 -1,5 -2,10 -2,15 0,7 1,12 2,17 1,5 3,9 6,12 2,3 5,6 8,7 3,2 6,2 9,2 2,0 4,0 6,0 2,-1 3,-1 4,-1 1,-1 2,-1 3,-2 1,0 2,0 3,0 1,0 2,0 3,1 1,0 1,0 1,1 1,0 1,0 1,1 1,0 1,1 1,1 0,1 -1,2 -2,3 -1,1 -3,2 -5,3 -1,1 -4,2 -6,2 -3,1 -6,2 -9,2 -5,0 -10,-1 -15,-3 -5,-2 -9,-5 -13,-9 -4,-4 -7,-9 -9,-15 -3,-6 -4,-13 -4,-22zm53 11c1,-2 1,-3 2,-4 0,-2 0,-3 0,-4 0,0 0,0 0,0 -1,0 -1,-1 -2,-1 -1,0 -2,0 -3,0 -1,0 -3,0 -4,0 -2,0 -3,0 -5,0 -2,1 -3,2 -4,3 0,1 -1,2 -1,3 0,0 0,0 0,0 0,1 0,1 0,1 0,1 0,1 0,2 0,1 1,2 1,2 1,1 2,1 3,2 1,0 2,1 4,1 0,0 0,0 1,0 0,0 0,0 0,0 2,-1 4,-1 5,-2 1,-1 1,-1 2,-2 0,0 1,-1 1,-1z"/>
  <path id="1" fill="none" fill-rule="nonzero" stroke="#31353E" stroke-width="0.39209" stroke-linecap="round" stroke-linejoin="round" d="M0 74c0,-7 1,-13 4,-19 2,-6 5,-11 9,-15 4,-4 9,-7 15,-10 5,-2 11,-3 17,-4 6,0 11,1 16,2 5,1 9,3 14,6 4,3 7,7 10,11 3,5 5,11 6,18 1,4 1,8 -1,10 -1,3 -3,5 -5,6 -2,1 -5,2 -8,2 -4,0 -7,0 -11,-2 -1,5 -2,8 -5,11 -3,5 -8,7 -14,8 -1,0 -1,0 -2,0 0,0 0,0 -1,0 -1,0 -3,0 -4,0 -2,0 -3,-1 -5,-1 -1,-1 -3,-2 -4,-3 -1,-1 -3,-2 -3,-4 -2,-2 -2,-4 -2,-7l0 0c0,-3 0,-5 1,-7 1,-2 3,-3 5,-5 1,-1 4,-2 6,-2 2,-1 5,-1 7,-1 2,0 3,0 5,0 2,1 3,1 5,1 0,-1 -1,-3 -1,-5 -1,-2 -2,-4 -4,-5 -1,0 -2,0 -2,0 -1,-1 -2,-1 -3,-1 -1,0 -1,0 -1,0 -1,0 -2,0 -3,1 -1,0 -2,0 -3,1 -1,0 -2,0 -3,0 -1,1 -2,1 -3,1 0,0 -1,0 -2,-1 -1,0 -2,-1 -2,-2l-1 0 1 -1c2,-2 4,-4 7,-5 3,-1 6,-2 9,-2 0,0 1,0 2,0 3,0 6,0 8,1 3,1 5,3 7,5 2,2 3,4 4,7 1,3 1,6 2,9 1,0 2,1 3,1 2,0 3,-1 3,-1 1,-1 2,-2 2,-3 0,-2 1,-3 1,-6 0,-4 -1,-9 -3,-12 -2,-4 -4,-6 -7,-9 -3,-2 -7,-4 -10,-4 -4,-1 -7,-2 -10,-1 -4,0 -8,1 -12,3 -3,2 -6,4 -9,8 -3,3 -5,7 -7,11 -1,5 -2,10 -2,15 0,7 1,12 2,17 1,5 3,9 6,12 2,3 5,6 8,7 3,2 6,2 9,2 2,0 4,0 6,0 2,-1 3,-1 4,-1 1,-1 2,-1 3,-2 1,0 2,0 3,0 1,0 2,0 3,1 1,0 1,0 1,1 1,0 1,0 1,1 1,0 1,1 1,1 0,1 -1,2 -2,3 -1,1 -3,2 -5,3 -1,1 -4,2 -6,2 -3,1 -6,2 -9,2 -5,0 -10,-1 -15,-3 -5,-2 -9,-5 -13,-9 -4,-4 -7,-9 -9,-15 -3,-6 -4,-13 -4,-22zm53 11c1,-2 1,-3 2,-4 0,-2 0,-3 0,-4 0,0 0,0 0,0 -1,0 -1,-1 -2,-1 -1,0 -2,0 -3,0 -1,0 -3,0 -4,0 -2,0 -3,0 -5,0 -2,1 -3,2 -4,3 0,1 -1,2 -1,3 0,0 0,0 0,0 0,1 0,1 0,1 0,1 0,1 0,2 0,1 1,2 1,2 1,1 2,1 3,2 1,0 2,1 4,1 0,0 0,0 1,0 0,0 0,0 0,0 2,-1 4,-1 5,-2 1,-1 1,-1 2,-2 0,0 1,-1 1,-1z"/>
  <path fill="white" stroke="#31353E" stroke-width="10.891" stroke-linecap="round" stroke-linejoin="round" d="M25 142c1,4 3,10 5,17 9,8 18,14 30,18 21,-10 50,-25 77,-53 11,-11 22,-23 34,-39 14,-18 19,-36 23,-45 -4,-12 -10,-21 -18,-30 -4,-1 -9,-3 -17,-5l-27 33 12 32c-2,9 -5,16 -9,22 -2,3 -8,9 -16,17 -10,10 -18,15 -26,16 -3,0 -19,-7 -36,-11l-32 28z"/>
 </g>
</svg>
