<?xml version="1.0" encoding="UTF-8"?>
<!DOCTYPE svg PUBLIC "-//W3C//DTD SVG 1.1//EN" "http://www.w3.org/Graphics/SVG/1.1/DTD/svg11.dtd">
<!-- Creator: CorelDRAW X7 -->
<svg xmlns="http://www.w3.org/2000/svg" xml:space="preserve" width="1.77877in" height="1.68214in" version="1.1" shape-rendering="geometricPrecision" text-rendering="geometricPrecision" image-rendering="optimizeQuality" fill-rule="evenodd" clip-rule="evenodd"
viewBox="0 0 4113 3890"
 xmlns:xlink="http://www.w3.org/1999/xlink">
 <g id="Layer_x0020_1">
  <metadata id="CorelCorpID_0Corel-Layer"/>
  <g id="_2019287547216">
   <path fill="none" stroke="white" stroke-width="513.87" stroke-linecap="round" stroke-linejoin="round" d="M2841 656c348,-266 593,-399 734,-399 54,0 115,40 181,118 67,79 100,150 100,214 0,56 -54,148 -164,276 -110,128 -238,250 -385,364l-280 219c-62,49 -106,74 -133,74 -12,1 -30,-8 -55,-27l-231 182c-18,13 -36,27 -53,40 16,745 37,1886 24,1915l-133 1c-1,-1 -1,-3 -1,-4l-97 1 -98 0 -142 0 -566 0c-179,-8 -382,-6 -561,0l-629 0c-102,-49 -95,-151 -95,-151l0 -2269c0,0 45,-8 122,-20 0,0 52,-187 70,-245l0 -17c0,0 67,-12 176,-27l128 -256c0,0 670,-108 1218,-20 292,47 435,174 505,282 4,7 8,14 12,21 8,-9 18,-17 30,-25 8,-7 18,-15 32,-25l291 -222z"/>
   <path fill="#027291" stroke="#30C8D9" stroke-width="16.0596" stroke-linecap="round" stroke-linejoin="round" d="M2841 656c348,-266 593,-399 734,-399 54,0 115,40 181,118 67,79 100,150 100,214 0,56 -54,148 -164,276 -110,128 -238,250 -385,364l-280 219c-62,49 -106,74 -133,74 -12,1 -30,-8 -55,-27l-231 182c-278,216 -451,325 -519,325 -22,0 -52,-19 -91,-58l-285 346c-217,41 -415,105 -595,192l-41 -55c134,-150 246,-327 334,-530l415 -187c-25,-36 -37,-64 -37,-85 0,-53 150,-194 449,-423l236 -179c-7,-17 -10,-31 -10,-42 0,-27 18,-53 54,-78 8,-7 18,-15 32,-25l291 -222z"/>
   <path fill="#6AC9CD" stroke="#6AC9CD" stroke-width="6.9373" stroke-linecap="round" stroke-linejoin="round" d="M753 645c0,783 0,1495 0,2278 0,0 -12,143 242,125 177,-12 1057,-59 1238,41 84,47 160,130 188,277 25,125 19,222 25,267l133 -1c16,-36 -20,-1752 -33,-2347 -3,-147 13,-248 -70,-378 -70,-108 -213,-235 -505,-282 -548,-88 -1218,20 -1218,20z"/>
   <path fill="#0086AC" stroke="#0086AC" stroke-width="16.0596" stroke-linecap="round" stroke-linejoin="round" d="M449 928c0,1100 0,1153 0,2252 0,0 -14,200 283,176 208,-18 1136,-101 1348,40 96,73 152,133 170,234l98 0c-2,-161 -103,-280 -166,-321 -212,-141 -1067,-76 -1274,-59 -298,25 -283,-175 -283,-175l0 -2174c-109,15 -176,27 -176,27z"/>
   <path fill="#027291" stroke="#027291" stroke-width="16.0596" stroke-linecap="round" stroke-linejoin="round" d="M257 1210c0,1099 0,1170 0,2269 0,0 -7,102 95,151l629 0c179,-6 382,-8 561,0l566 0c-31,-39 -65,-70 -101,-93 -212,-141 -1137,-76 -1345,-59 -297,25 -283,-175 -283,-175l0 -2113c-77,12 -122,20 -122,20z"/>
   <path fill="black" fill-rule="nonzero" d="M1118 2482l-41 -55c134,-150 246,-327 334,-530l415 -187c-25,-36 -37,-64 -37,-85 0,-53 150,-194 449,-423l236 -179c-7,-17 -10,-31 -10,-42 0,-27 18,-53 54,-78 8,-7 18,-15 32,-25l291 -222c348,-266 593,-399 734,-399 54,0 115,40 181,118 67,79 100,150 100,214 0,56 -54,148 -164,276 -110,128 -238,250 -385,364l-280 219c-62,49 -107,74 -133,74 -12,1 -30,-8 -55,-27l-231 182c-278,216 -451,325 -519,325 -22,0 -52,-19 -91,-58l-285 346c-217,41 -415,105 -595,192zm1866 -1099l183 -140c407,-312 610,-532 610,-661 0,-49 -25,-103 -77,-161 -50,-58 -97,-88 -140,-88 -120,0 -375,149 -765,445l-167 127c200,83 319,242 356,478zm-70 -26c-46,-172 -138,-295 -276,-368l-288 220c-148,114 -297,240 -447,380 107,71 186,178 238,320 221,-143 388,-257 499,-343l274 -209zm-898 457c-18,-31 -40,-59 -67,-83l-489 222c-9,16 -30,60 -64,132 -9,18 -47,79 -115,184l213 -160 -1 -12c0,-48 25,-72 75,-72 50,0 75,24 75,72 0,48 -25,72 -74,72 -7,0 -16,-2 -30,-6l-216 162c99,-35 199,-63 298,-84 7,-2 21,-6 43,-12l352 -415zm1542 -1255l89 119c-33,73 -109,154 -229,245l-235 176c-7,55 -40,82 -96,82 -66,0 -99,-32 -99,-94 0,-63 33,-94 97,-94 11,0 26,3 45,8l170 -124c138,-101 224,-207 258,-318z"/>
   <path fill="black" stroke="black" stroke-width="16.0596" stroke-linecap="round" stroke-linejoin="round" d="M2250 3630l-142 0c-31,-39 -65,-70 -101,-93 -212,-141 -1137,-76 -1345,-59 -297,25 -283,-175 -283,-175l0 -2113c0,0 52,-187 70,-245l0 2235c0,0 -14,200 283,176 208,-18 1136,-101 1348,40 96,73 152,133 170,234zm98 0c-2,-161 -103,-280 -166,-321 -212,-141 -1067,-76 -1274,-59 -298,25 -283,-175 -283,-175l0 -2174 128 -256c0,783 0,1495 0,2278 0,0 -12,143 242,125 177,-12 1057,-59 1238,41 84,47 160,130 188,277 25,125 19,218 24,263l-97 1z"/>
  </g>
 </g>
</svg>
