<?xml version="1.0" encoding="UTF-8"?>
<!DOCTYPE svg PUBLIC "-//W3C//DTD SVG 1.1//EN" "http://www.w3.org/Graphics/SVG/1.1/DTD/svg11.dtd">
<!-- Creator: CorelDRAW X7 -->
<svg xmlns="http://www.w3.org/2000/svg" xml:space="preserve" width="3.49586in" height="3.31676in" version="1.1" style="shape-rendering:geometricPrecision; text-rendering:geometricPrecision; image-rendering:optimizeQuality; fill-rule:evenodd; clip-rule:evenodd"
viewBox="0 0 3756 3564"
 xmlns:xlink="http://www.w3.org/1999/xlink">
 <defs>
  <style type="text/css">
   <![CDATA[
    .str1 {stroke:white;stroke-width:537.239;stroke-linecap:round;stroke-linejoin:round}
    .str0 {stroke:#4D4D4D;stroke-width:656.625;stroke-linecap:round;stroke-linejoin:round}
    .str6 {stroke:black;stroke-width:7.46213;stroke-linecap:round;stroke-linejoin:round}
    .str4 {stroke:#0086AC;stroke-width:7.46213;stroke-linecap:round;stroke-linejoin:round}
    .str5 {stroke:#027291;stroke-width:7.46213;stroke-linecap:round;stroke-linejoin:round}
    .str2 {stroke:#30C8D9;stroke-width:7.46213;stroke-linecap:round;stroke-linejoin:round}
    .str3 {stroke:#6AC9CD;stroke-width:3.22344;stroke-linecap:round;stroke-linejoin:round}
    .fil0 {fill:none}
    .fil5 {fill:black}
    .fil3 {fill:#0086AC}
    .fil1 {fill:#027291}
    .fil2 {fill:#6AC9CD}
    .fil4 {fill:black;fill-rule:nonzero}
   ]]>
  </style>
 </defs>
 <g id="Layer_x0020_1">
  <metadata id="CorelCorpID_0Corel-Layer"/>
  <path class="fil0 str0" d="M2554 672c299,-229 510,-344 632,-344 46,0 98,34 156,102 57,68 86,129 86,184 0,49 -47,128 -142,238 -94,111 -204,215 -331,313l-241 189c-54,42 -92,63 -115,64 -10,1 -25,-7 -47,-23l-199 156c-16,12 -31,23 -45,35 13,641 31,1624 20,1649l-115 0c0,-1 0,-2 0,-3l-84 1 -84 0 -122 0 -488 0c-155,-7 -329,-5 -483,0l-541 0c-89,-42 -83,-130 -83,-130l0 -1954c0,0 39,-7 106,-17 0,0 44,-161 60,-212l0 -13c0,0 57,-11 151,-24l111 -221c0,0 576,-92 1049,-17 251,41 374,150 434,243 4,6 8,12 11,18 7,-7 15,-15 25,-22 7,-6 16,-12 28,-21l251 -191z"/>
  <path class="fil0 str1" d="M2554 672c299,-229 510,-344 632,-344 46,0 98,34 156,102 57,68 86,129 86,184 0,49 -47,128 -142,238 -94,111 -204,215 -331,313l-241 189c-54,42 -92,63 -115,64 -10,1 -25,-7 -47,-23l-199 156c-16,12 -31,23 -45,35 13,641 31,1624 20,1649l-115 0c0,-1 0,-2 0,-3l-84 1 -84 0 -122 0 -488 0c-155,-7 -329,-5 -483,0l-541 0c-89,-42 -83,-130 -83,-130l0 -1954c0,0 39,-7 106,-17 0,0 44,-161 60,-212l0 -13c0,0 57,-11 151,-24l111 -221c0,0 576,-92 1049,-17 251,41 374,150 434,243 4,6 8,12 11,18 7,-7 15,-15 25,-22 7,-6 16,-12 28,-21l251 -191z"/>
  <path class="fil1 str2" d="M2554 672c299,-229 510,-344 632,-344 46,0 98,34 156,102 57,68 86,129 86,184 0,49 -47,128 -142,238 -94,111 -204,215 -331,313l-241 189c-54,42 -92,63 -115,64 -10,1 -25,-7 -47,-23l-199 156c-240,186 -388,280 -447,280 -19,0 -45,-17 -79,-50l-245 298c-187,36 -358,91 -512,166l-36 -48c116,-129 212,-281 288,-456l357 -161c-21,-31 -31,-56 -31,-74 0,-45 129,-166 387,-364l203 -154c-7,-15 -9,-27 -9,-36 0,-23 15,-45 46,-68 7,-6 16,-12 28,-21l251 -191z"/>
  <path class="fil2 str3" d="M756 662c0,675 0,1288 0,1962 0,0 -11,123 208,108 152,-11 910,-51 1066,35 72,40 138,112 162,239 21,107 16,191 21,229l115 0c13,-31 -17,-1509 -28,-2021 -3,-127 11,-214 -61,-326 -60,-93 -183,-202 -434,-243 -473,-75 -1049,17 -1049,17z"/>
  <path class="fil3 str4" d="M494 907c0,946 0,992 0,1939 0,0 -13,172 244,151 178,-15 978,-87 1160,34 83,64 131,115 147,202l84 0c-2,-139 -88,-241 -143,-277 -182,-121 -919,-65 -1097,-50 -256,21 -244,-151 -244,-151l0 -1872c-94,13 -151,24 -151,24z"/>
  <path class="fil1 str5" d="M328 1149c0,947 0,1008 0,1954 0,0 -6,88 83,130l541 0c154,-5 328,-7 483,0l488 0c-27,-34 -57,-60 -88,-80 -182,-122 -979,-65 -1158,-51 -256,22 -243,-151 -243,-151l0 -1819c-67,10 -106,17 -106,17z"/>
  <path class="fil4" d="M1070 2245l-36 -48c116,-129 212,-281 288,-456l357 -161c-21,-31 -31,-56 -31,-74 0,-45 129,-166 387,-364l203 -154c-7,-15 -9,-27 -9,-36 0,-23 15,-45 46,-68 7,-6 16,-12 28,-21l251 -191c299,-229 510,-344 632,-344 46,0 98,34 156,102 57,68 86,129 86,184 0,49 -47,128 -142,238 -94,111 -204,215 -331,313l-241 189c-54,42 -92,63 -115,64 -10,1 -25,-7 -47,-23l-199 156c-240,186 -388,280 -447,280 -19,0 -45,-17 -79,-50l-245 298c-187,36 -358,91 -512,166zm1607 -947l158 -121c350,-268 525,-458 525,-569 0,-42 -22,-89 -66,-139 -44,-50 -84,-75 -122,-75 -102,0 -322,128 -658,383l-144 110c172,70 275,208 307,411zm-61 -22c-39,-149 -119,-255 -238,-318l-248 190c-127,98 -255,207 -384,327 92,62 160,154 205,276 190,-123 334,-222 430,-296l235 -179zm-773 393c-15,-26 -34,-50 -58,-71l-420 191c-8,14 -27,52 -56,113 -8,16 -40,69 -98,159l183 -138 -1 -10c0,-41 21,-62 64,-62 43,0 65,21 65,62 0,41 -22,62 -64,62 -5,0 -14,-2 -26,-5l-186 139c86,-30 172,-54 257,-73 6,-1 18,-5 37,-10l303 -357zm1328 -1080l76 102c-27,62 -93,132 -197,210l-202 153c-6,47 -34,70 -83,70 -56,0 -84,-27 -84,-81 0,-54 27,-81 83,-81 9,0 22,3 39,7l146 -107c119,-87 192,-178 222,-273z"/>
  <path class="fil5 str6" d="M2045 3233l-122 0c-27,-34 -57,-60 -88,-80 -182,-122 -979,-65 -1158,-51 -256,22 -243,-151 -243,-151l0 -1819c0,0 44,-161 60,-212l0 1926c0,0 -13,172 244,151 178,-15 978,-87 1160,34 83,64 131,115 147,202zm84 0c-2,-139 -88,-241 -143,-277 -182,-121 -919,-65 -1097,-50 -256,21 -244,-151 -244,-151l0 -1872 111 -221c0,675 0,1288 0,1962 0,0 -11,123 208,108 152,-11 910,-51 1066,35 72,40 138,112 162,239 21,107 16,187 21,226l-84 1z"/>
 </g>
</svg>
