<?xml version="1.0" encoding="UTF-8"?>
<!DOCTYPE svg PUBLIC "-//W3C//DTD SVG 1.1//EN" "http://www.w3.org/Graphics/SVG/1.1/DTD/svg11.dtd">
<!-- Creator: CorelDRAW X7 -->
<svg xmlns="http://www.w3.org/2000/svg" xml:space="preserve" width="100in" height="102.811in" version="1.1" style="shape-rendering:geometricPrecision; text-rendering:geometricPrecision; image-rendering:optimizeQuality; fill-rule:evenodd; clip-rule:evenodd"
viewBox="0 0 13344 13719"
 xmlns:xlink="http://www.w3.org/1999/xlink">
 <defs>
  <style type="text/css">
   <![CDATA[
    .str0 {stroke:#1A1A1A;stroke-width:458.389}
    .fil0 {fill:none}
   ]]>
  </style>
 </defs>
 <g id="Layer_x0020_1">
  <metadata id="CorelCorpID_0Corel-Layer"/>
  <path class="fil0 str0" d="M6672 13490l-3464 0c-1637,0 -2979,-1340 -2979,-2979l0 -5904c0,-49 672,-541 1581,-1206 1067,-781 2166,-1534 3250,-2293 460,-321 931,-630 1292,-785 142,-61 251,-94 320,-94 69,0 178,33 320,94 361,155 832,464 1292,785 1084,759 2183,1512 3250,2293 910,665 1581,1157 1581,1206l0 5904c0,1638 -1342,2979 -2979,2979l-3464 0z"/>
 </g>
</svg>
