<?xml version="1.0" encoding="UTF-8"?>
<!DOCTYPE svg PUBLIC "-//W3C//DTD SVG 1.1//EN" "http://www.w3.org/Graphics/SVG/1.1/DTD/svg11.dtd">
<!-- Creator: CorelDRAW X7 -->
<svg xmlns="http://www.w3.org/2000/svg" xml:space="preserve" width="1in" height="1.03228in" version="1.1" style="shape-rendering:geometricPrecision; text-rendering:geometricPrecision; image-rendering:optimizeQuality; fill-rule:evenodd; clip-rule:evenodd"
viewBox="0 0 3722 3843"
 xmlns:xlink="http://www.w3.org/1999/xlink">
 <defs>
  <style type="text/css">
   <![CDATA[
    .str0 {stroke:white;stroke-width:139.044;stroke-linecap:round;stroke-linejoin:round}
    .fil0 {fill:none}
   ]]>
  </style>
 </defs>
 <g id="Layer_x0020_1">
  <metadata id="CorelCorpID_0Corel-Layer"/>
  <path class="fil0 str0" d="M2342 3450c-68,188 -249,323 -459,323l-43 0c-211,0 -391,-135 -459,-323m1838 -2108c0,-700 -573,-1272 -1273,-1272l-170 0c-700,0 -1273,572 -1273,1272l0 1134c-264,121 -433,289 -433,504 0,64 39,116 87,116l346 0 2716 0 346 0c48,0 88,-52 88,-116 0,-215 -169,-383 -434,-504l0 -1134z"/>
 </g>
</svg>
