<?xml version="1.0" encoding="UTF-8"?>
<!DOCTYPE svg PUBLIC "-//W3C//DTD SVG 1.1//EN" "http://www.w3.org/Graphics/SVG/1.1/DTD/svg11.dtd">
<!-- Creator: CorelDRAW X7 -->
<svg xmlns="http://www.w3.org/2000/svg" xml:space="preserve" width="445px" height="457px" version="1.1" shape-rendering="geometricPrecision" text-rendering="geometricPrecision" image-rendering="optimizeQuality" fill-rule="evenodd" clip-rule="evenodd"
viewBox="0 0 193 198"
 xmlns:xlink="http://www.w3.org/1999/xlink">
 <g id="Layer_x0020_1">
  <metadata id="CorelCorpID_0Corel-Layer"/>
  <path fill="white" stroke="#31353E" stroke-width="10.8457" stroke-linecap="round" stroke-linejoin="round" d="M86 19c40,0 73,20 73,78 0,58 -47,96 -73,96 -25,0 -72,-38 -72,-96 0,-58 32,-78 72,-78z"/>
  <path fill="white" stroke="#31353E" stroke-width="10.8457" stroke-linecap="round" stroke-linejoin="round" d="M86 7c69,-5 74,45 77,78 4,28 26,16 26,17 -15,18 -27,8 -34,5 -67,-34 -59,-7 -55,-6 14,1 5,20 23,21 -28,10 -22,-8 -39,-11 -15,-2 -35,4 -49,-21 -5,-9 -21,8 -21,7 -18,6 -13,-106 72,-90z"/>
  <path fill="none" stroke="#31353E" stroke-width="10.8457" d="M68 148c2,10 34,10 37,2"/>
 </g>
</svg>
