<?xml version="1.0" encoding="UTF-8"?>
<!DOCTYPE svg PUBLIC "-//W3C//DTD SVG 1.1//EN" "http://www.w3.org/Graphics/SVG/1.1/DTD/svg11.dtd">
<!-- Creator: CorelDRAW X7 -->
<svg xmlns="http://www.w3.org/2000/svg" xml:space="preserve" width="1.39219in" height="1.37473in" version="1.1" shape-rendering="geometricPrecision" text-rendering="geometricPrecision" image-rendering="optimizeQuality" fill-rule="evenodd" clip-rule="evenodd"
viewBox="0 0 989 977"
 xmlns:xlink="http://www.w3.org/1999/xlink">
 <g id="Layer_x0020_1">
  <metadata id="CorelCorpID_0Corel-Layer"/>
  <path fill="#204D97" stroke="#204D97" stroke-width="2.13128" d="M988 488c1,41 -9,61 -85,98 -249,125 -498,251 -748,377 -107,41 -176,-24 -148,-128 18,-58 37,-129 59,-190 29,-73 45,-90 132,-99l519 -27c22,-4 22,-20 24,-31 -2,-11 -2,-27 -24,-31l-519 -26c-87,-9 -103,-26 -132,-100 -22,-60 -41,-132 -59,-189 -28,-105 41,-170 148,-129 250,126 499,252 748,378 76,36 86,56 85,97z"/>
 </g>
</svg>
