<?xml version="1.0" encoding="UTF-8"?>
<!DOCTYPE svg PUBLIC "-//W3C//DTD SVG 1.1//EN" "http://www.w3.org/Graphics/SVG/1.1/DTD/svg11.dtd">
<!-- Creator: CorelDRAW X7 -->
<svg xmlns="http://www.w3.org/2000/svg" xml:space="preserve" width="1in" height="1.00001in" version="1.1" style="shape-rendering:geometricPrecision; text-rendering:geometricPrecision; image-rendering:optimizeQuality; fill-rule:evenodd; clip-rule:evenodd"
viewBox="0 0 30 30"
 xmlns:xlink="http://www.w3.org/1999/xlink">
 <defs>
  <style type="text/css">
   <![CDATA[
    .str0 {stroke:#1A1A1A;stroke-width:1.00704;stroke-linecap:round;stroke-linejoin:round}
    .fil0 {fill:none}
   ]]>
  </style>
 </defs>
 <g id="Layer_x0020_1">
  <metadata id="CorelCorpID_0Corel-Layer"/>
  <path class="fil0 str0" d="M19 1l4 1 -1 4c1,1 2,2 3,3l3 -1 2 3 -4 2c0,1 1,2 1,2 0,1 -1,2 -1,2l4 2 -2 4 -4 -1c0,1 -1,2 -3,3l1 3 -3 2 -2 -4c-1,0 -1,1 -2,1 -1,0 -2,-1 -2,-1l-2 4 -4 -2 2 -4c-2,0 -3,-1 -3,-3l-4 1 -1 -3 3 -2c0,-1 0,-1 0,-2 0,-1 0,-2 0,-2l-3 -2 1 -4 4 2c1,-2 2,-3 3,-3l-1 -4 3 -1 2 3c1,0 2,0 2,0 1,0 2,0 2,0l2 -3zm-4 8c4,0 6,3 6,6 0,4 -3,6 -6,6 -3,0 -6,-3 -6,-6 0,-3 3,-6 6,-6z"/>
 </g>
</svg>
