<?xml version="1.0" encoding="UTF-8"?>
<!DOCTYPE svg PUBLIC "-//W3C//DTD SVG 1.1//EN" "http://www.w3.org/Graphics/SVG/1.1/DTD/svg11.dtd">
<!-- Creator: CorelDRAW X7 -->
<svg xmlns="http://www.w3.org/2000/svg" xml:space="preserve" width="1.31748in" height="1.54486in" version="1.1" shape-rendering="geometricPrecision" text-rendering="geometricPrecision" image-rendering="optimizeQuality" fill-rule="evenodd" clip-rule="evenodd"
viewBox="0 0 734 861"
 xmlns:xlink="http://www.w3.org/1999/xlink">
 <defs>
   <clipPath id="id0">
    <path d="M361 294l12 0c51,0 92,42 92,92l0 104c0,50 -41,92 -92,92l-12 0c-51,0 -92,-42 -92,-92l0 -104c0,-50 41,-92 92,-92z"/>
   </clipPath>
   <clipPath id="id1">
    <path d="M9 665c1,-71 147,-145 267,-174 1,50 42,91 92,91l12 0c49,0 90,-39 92,-88 118,31 252,103 253,171l0 134c-83,40 -229,57 -358,52 -128,5 -275,-12 -358,-52l0 -134z"/>
   </clipPath>
 </defs>
 <g id="Layer_x0020_1">
  <metadata id="CorelCorpID_0Corel-Layer"/>
  <path fill="white" d="M361 294l12 0c51,0 92,42 92,92l0 104c0,50 -41,92 -92,92l-12 0c-51,0 -92,-42 -92,-92l0 -104c0,-50 41,-92 92,-92z"/>
  <g clip-path="url(#id0)">
   <g id="_2345768579216">
    <path id="1" fill="black" fill-opacity="0.400000" stroke="black" stroke-width="3.87037" stroke-opacity="0.400000" d="M446 615c-34,-103 -179,-174 -177,-229 3,-100 129,-128 160,-121 83,20 79,322 17,350z"/>
   </g>
  </g>
  <path fill="none" stroke="#31353E" stroke-width="18.5752" d="M361 294l12 0c51,0 92,42 92,92l0 104c0,50 -41,92 -92,92l-12 0c-51,0 -92,-42 -92,-92l0 -104c0,-50 41,-92 92,-92z"/>
  <path fill="white" d="M9 665c1,-71 147,-145 267,-174 1,50 42,91 92,91l12 0c49,0 90,-39 92,-88 118,31 252,103 253,171l0 134c-83,40 -229,57 -358,52 -128,5 -275,-12 -358,-52l0 -134z"/>
  <g clip-path="url(#id1)">
   <g id="_2345768583056">
    <path id="1" fill="black" fill-opacity="0.349020" d="M452 851c73,-20 287,-230 -19,-366 559,-403 473,682 19,366z"/>
   </g>
  </g>
  <path fill="none" stroke="#31353E" stroke-width="18.5752" d="M9 665c1,-71 147,-145 267,-174 1,50 42,91 92,91l12 0c49,0 90,-39 92,-88 118,31 252,103 253,171l0 134c-83,40 -229,57 -358,52 -128,5 -275,-12 -358,-52l0 -134z"/>
  <ellipse fill="white" stroke="#31353E" stroke-width="18.5752" cx="367" cy="233" rx="194" ry="224"/>
 </g>
</svg>
