<?xml version="1.0" encoding="UTF-8"?>
<!DOCTYPE svg PUBLIC "-//W3C//DTD SVG 1.1//EN" "http://www.w3.org/Graphics/SVG/1.1/DTD/svg11.dtd">
<!-- Creator: CorelDRAW X7 -->
<svg xmlns="http://www.w3.org/2000/svg" xml:space="preserve" width="1.5433in" height="1.5433in" version="1.1" shape-rendering="geometricPrecision" text-rendering="geometricPrecision" image-rendering="optimizeQuality" fill-rule="evenodd" clip-rule="evenodd"
viewBox="0 0 84517 84517"
 xmlns:xlink="http://www.w3.org/1999/xlink">
 <g id="Layer_x0020_1">
  <metadata id="CorelCorpID_0Corel-Layer"/>
  <path fill="white" stroke="#31353E" stroke-width="6084.81" d="M55968 12297c4537,-2289 10244,-1545 14021,2232 3776,3776 4520,9483 2231,14020 332,726 640,1465 920,2218 4826,1590 8335,6151 8335,11492 0,5340 -3509,9901 -8335,11491 -280,753 -588,1492 -920,2218 2289,4537 1545,10244 -2231,14021 -3777,3776 -9484,4520 -14021,2231 -726,332 -1465,640 -2218,920 -1590,4826 -6151,8335 -11492,8335 -5340,0 -9901,-3509 -11491,-8335 -753,-280 -1492,-588 -2218,-920 -4537,2289 -10244,1545 -14020,-2231 -3777,-3777 -4521,-9484 -2232,-14021 -332,-726 -639,-1465 -920,-2218 -4826,-1590 -8335,-6151 -8335,-11492 0,-5340 3509,-9901 8335,-11491 281,-753 588,-1492 920,-2218 -2289,-4537 -1545,-10244 2232,-14020 3776,-3777 9483,-4521 14020,-2232 726,-332 1465,-639 2218,-920 1590,-4826 6151,-8335 11491,-8335 5341,0 9902,3509 11492,8335 753,281 1492,588 2218,920z"/>
  <polyline fill="none" stroke="#31353E" stroke-width="6084.81" stroke-linecap="round" stroke-linejoin="round" points="26057,42181 36377,52554 58379,30709 "/>
 </g>
</svg>
