<?xml version="1.0" encoding="UTF-8"?>
<!DOCTYPE svg PUBLIC "-//W3C//DTD SVG 1.1//EN" "http://www.w3.org/Graphics/SVG/1.1/DTD/svg11.dtd">
<!-- Creator: CorelDRAW X7 -->
<svg xmlns="http://www.w3.org/2000/svg" xml:space="preserve" width="1.5433in" height="1.5433in" version="1.1" shape-rendering="geometricPrecision" text-rendering="geometricPrecision" image-rendering="optimizeQuality" fill-rule="evenodd" clip-rule="evenodd"
viewBox="0 0 645 645"
 xmlns:xlink="http://www.w3.org/1999/xlink">
 <g id="Layer_x0020_1">
  <metadata id="CorelCorpID_0Corel-Layer"/>
  <path fill="#0078DA" stroke="white" stroke-width="46.4097" d="M427 94c34,-18 78,-12 107,17 29,29 34,72 17,107 2,5 5,11 7,17 37,12 63,47 63,87 0,41 -26,76 -63,88 -2,6 -5,11 -7,17 17,34 12,78 -17,107 -29,29 -73,34 -107,17 -6,2 -11,5 -17,7 -12,37 -47,63 -88,63 -40,0 -75,-26 -87,-63 -6,-2 -12,-5 -17,-7 -35,17 -78,12 -107,-17 -29,-29 -35,-73 -17,-107 -3,-6 -5,-11 -7,-17 -37,-12 -64,-47 -64,-88 0,-40 27,-75 64,-87 2,-6 4,-12 7,-17 -18,-35 -12,-78 17,-107 29,-29 72,-35 107,-17 5,-3 11,-5 17,-7 12,-37 47,-64 87,-64 41,0 76,27 88,64 6,2 11,4 17,7z"/>
  <polyline fill="none" stroke="white" stroke-width="46.4097" stroke-linecap="round" stroke-linejoin="round" points="199,322 277,401 445,234 "/>
 </g>
</svg>
